<svg width="350" height="36" viewBox="0 0 350 36" version="1.1" xmlns="http://www.w3.org/2000/svg" xmlns:xlink="http://www.w3.org/1999/xlink">
<title>Group</title>
<desc>Created using Figma</desc>
<g id="Canvas" transform="translate(862 -1023)">
<g id="Group">
<g id="Canvas">
<g id="Logo Small">
<g id="MAVRIK">
<g id="Vector">
<use xlink:href="#path0_fill" transform="translate(-862 1029.74)"/>
</g>
</g>
<g id="Line 2">
<g id="Vector">
<use xlink:href="#path1_fill" transform="matrix(6.15969e-17 1 -1 6.08698e-17 -708.436 1023)"/>
</g>
</g>
<g id="BUILD WHAT&#195;&#162;&#194;&#128;&#194;&#153;S NEXT">
<g id="Vector">
<use xlink:href="#path2_fill" transform="translate(-698.514 1035.21)"/>
</g>
</g>
</g>
</g>
</g>
</g>
<defs>
<path id="path0_fill" d="M 10.0399 22.645L 2.34315 2.65327L 2.21902 2.65327C 2.36385 4.23698 2.43626 6.1189 2.43626 8.29903L 2.43626 22.645L 5.57099e-08 22.645L 5.57099e-08 0.0925718L 3.9725 0.0925718L 11.1571 18.696L 11.2813 18.696L 18.528 0.0925718L 22.4695 0.0925718L 22.4695 22.645L 19.8314 22.645L 19.8314 8.11396C 19.8314 6.44797 19.9039 4.63805 20.0487 2.68413L 19.9246 2.68413L 12.1658 22.645L 10.0399 22.645ZM 49.0699 22.645L 46.2457 15.472L 37.1524 15.472L 34.3592 22.645L 31.6902 22.645L 40.6594 3.13895e-08L 42.8784 3.13895e-08L 51.801 22.645L 49.0699 22.645ZM 45.4232 13.1119L 42.7853 6.12404C 42.4439 5.23962 42.0922 4.15469 41.73 2.8692C 41.5025 3.85648 41.1766 4.9414 40.7525 6.12404L 38.0835 13.1119L 45.4232 13.1119ZM 73.9792 0.0925718L 76.8187 0.0925718L 68.6409 22.645L 66.034 22.645L 57.9027 0.0925718L 60.6959 0.0925718L 65.9098 14.6853C 66.5098 16.3616 66.9857 17.9916 67.3374 19.5753C 67.7098 17.9093 68.196 16.2484 68.7961 14.5927L 73.9792 0.0925718ZM 88.6933 13.2661L 88.6933 22.645L 86.0548 22.645L 86.0548 0.0925718L 92.2778 0.0925718C 95.0604 0.0925718 97.1135 0.622212 98.4379 1.68142C 99.7727 2.74063 100.44 4.33462 100.44 6.4634C 100.44 9.44566 98.9191 11.4613 95.8778 12.5103L 102.038 22.645L 98.9191 22.645L 93.4256 13.2661L 88.6933 13.2661ZM 88.6933 11.0139L 92.3088 11.0139C 94.1705 11.0139 95.5363 10.6489 96.4055 9.91873C 97.2739 9.17831 97.7085 8.07282 97.7085 6.60225C 97.7085 5.11105 97.2635 4.03641 96.3744 3.37827C 95.4949 2.72006 94.0774 2.39099 92.1226 2.39099L 88.6933 2.39099L 88.6933 11.0139ZM 111.802 22.645L 111.802 0.0925718L 114.44 0.0925718L 114.44 22.645L 111.802 22.645ZM 143.166 22.645L 140.063 22.645L 131.792 11.7082L 129.417 13.806L 129.417 22.645L 126.78 22.645L 126.78 0.0925718L 129.417 0.0925718L 129.417 11.2762L 139.706 0.0925718L 142.825 0.0925718L 133.7 9.88788L 143.166 22.645Z"/>
<path id="path1_fill" d="M 0 0.739069L 36 0.739069L 36 0L 0 0L 0 0.739069Z"/>
<path id="path2_fill" d="M 4.27973e-08 0.180808L 3.47305 0.180808C 5.0378 0.180808 6.18683 0.444835 6.92014 0.972896C 7.65337 1.50099 8.02002 2.29879 8.02002 3.36637C 8.02002 4.09534 7.7949 4.70374 7.34451 5.19165C 6.89989 5.67383 6.24744 5.98372 5.38712 6.12148L 5.38712 6.17313C 6.39754 6.32241 7.13949 6.64098 7.61302 7.12882C 8.09223 7.61099 8.33183 8.28537 8.33183 9.15209C 8.33183 10.3115 7.94501 11.2041 7.17127 11.8298C 6.39754 12.4553 5.30051 12.7682 3.88011 12.7682L 4.27973e-08 12.7682L 4.27973e-08 0.180808ZM 0.883416 5.78572L 3.67225 5.78572C 4.86169 5.78572 5.72492 5.59059 6.26185 5.20024C 6.80462 4.80424 7.07601 4.18717 7.07601 3.34918C 7.07601 2.51119 6.76996 1.90272 6.15794 1.52391C 5.55168 1.1451 4.64517 0.955682 3.4384 0.955682L 0.883416 0.955682L 0.883416 5.78572ZM 0.883416 6.5606L 0.883416 11.9933L 3.86279 11.9933C 6.20701 11.9933 7.37917 11.0462 7.37917 9.15209C 7.37917 7.42446 6.14353 6.5606 3.67225 6.5606L 0.883416 6.5606ZM 22.1163 0.180808L 22.1163 8.32556C 22.1163 9.77202 21.6948 10.9027 20.8518 11.7178C 20.0088 12.5329 18.8338 12.9404 17.3267 12.9404C 15.8602 12.9404 14.7141 12.5329 13.8884 11.7178C 13.0685 10.897 12.6585 9.75476 12.6585 8.2911L 12.6585 0.180808L 13.5506 0.180808L 13.5506 8.32556C 13.5506 9.5367 13.8884 10.4809 14.564 11.1582C 15.2395 11.8298 16.1951 12.1655 17.4307 12.1655C 18.6375 12.1655 19.5729 11.8355 20.2368 11.1754C 20.9009 10.5096 21.2329 9.58835 21.2329 8.41166L 21.2329 0.180808L 22.1163 0.180808ZM 27.2571 12.7682L 27.2571 0.180808L 28.1405 0.180808L 28.1405 12.7682L 27.2571 12.7682ZM 33.4113 12.7682L 33.4113 0.180808L 34.2947 0.180808L 34.2947 11.9416L 40.3314 11.9416L 40.3314 12.7682L 33.4113 12.7682ZM 53.8213 6.35393C 53.8213 8.46618 53.2641 10.0647 52.1498 11.1496C 51.0354 12.2286 49.3984 12.7682 47.239 12.7682L 44.2076 12.7682L 44.2076 0.180808L 47.6287 0.180808C 49.6496 0.180808 51.1855 0.705997 52.2364 1.75637C 53.293 2.80676 53.8213 4.33926 53.8213 6.35393ZM 52.8599 6.38839C 52.8599 4.58611 52.398 3.23148 51.4742 2.32465C 50.5561 1.41202 49.205 0.955682 47.4209 0.955682L 45.0911 0.955682L 45.0911 11.9933L 47.187 11.9933C 50.9689 11.9933 52.8599 10.125 52.8599 6.38839ZM 74.7991 12.7682L 74.0719 12.7682L 71.2915 3.05641C 71.0605 2.2586 70.8874 1.60428 70.7719 1.09345C 70.6795 1.59282 70.5467 2.16677 70.3734 2.81535C 70.206 3.46394 69.2764 6.7816 67.5846 12.7682L 66.8398 12.7682L 63.3581 0.180808L 64.2848 0.180808L 66.502 8.2911C 66.5887 8.61833 66.6694 8.9225 66.7445 9.20374C 66.8196 9.47925 66.886 9.74043 66.9437 9.98722C 67.0073 10.2283 67.0621 10.4637 67.1083 10.6933C 67.1602 10.9171 67.2064 11.1438 67.2469 11.3734C 67.3854 10.5928 67.6799 9.40754 68.1303 7.81759L 70.2955 0.180808L 71.2742 0.180808L 73.8117 8.94549C 74.1066 9.9557 74.3172 10.7707 74.4444 11.3906C 74.519 10.9774 74.6143 10.5382 74.7296 10.0733C 74.8509 9.60841 75.7429 6.31088 77.4058 0.180808L 78.2986 0.180808L 74.7991 12.7682ZM 91.3986 12.7682L 90.5065 12.7682L 90.5065 6.57779L 83.1099 6.57779L 83.1099 12.7682L 82.2268 12.7682L 82.2268 0.180808L 83.1099 0.180808L 83.1099 5.76853L 90.5065 5.76853L 90.5065 0.180808L 91.3986 0.180808L 91.3986 12.7682ZM 102.775 8.32556L 97.6304 8.32556L 95.8641 12.7682L 94.8848 12.7682L 99.9777 0.129152L 100.541 0.129152L 105.53 12.7682L 104.533 12.7682L 102.775 8.32556ZM 97.9512 7.53348L 102.481 7.53348L 100.757 2.99616C 100.613 2.64028 100.44 2.14671 100.238 1.51531C 100.082 2.06633 99.9112 2.56571 99.7264 3.01343L 97.9512 7.53348ZM 112.316 12.7682L 111.424 12.7682L 111.424 1.00734L 107.31 1.00734L 107.31 0.180808L 116.429 0.180808L 116.429 1.00734L 112.316 1.00734L 112.316 12.7682ZM 120.427 0.180808L 120.531 0.352998C 120.098 1.87406 119.596 3.25448 119.024 4.49428L 118.461 4.49428C 118.629 3.94326 118.805 3.25162 118.99 2.41935C 119.174 1.58129 119.315 0.835141 119.414 0.180808L 120.427 0.180808ZM 131.258 9.5223C 131.258 10.5727 130.869 11.405 130.089 12.0192C 129.315 12.6333 128.285 12.9404 126.997 12.9404C 125.45 12.9404 124.263 12.771 123.437 12.4324L 123.437 11.5542C 124.35 11.9388 125.513 12.1311 126.928 12.1311C 127.967 12.1311 128.79 11.8957 129.396 11.4251C 130.008 10.9486 130.314 10.3259 130.314 9.55676C 130.314 9.08038 130.213 8.68717 130.011 8.37721C 129.809 8.06151 129.48 7.77454 129.024 7.51629C 128.568 7.25798 127.898 6.9796 127.014 6.68109C 125.721 6.23917 124.826 5.76273 124.329 5.25189C 123.839 4.73533 123.593 4.04942 123.593 3.19424C 123.593 2.25287 123.963 1.48659 124.702 0.895408C 125.447 0.298469 126.402 -4.75327e-08 127.569 -4.75327e-08C 128.759 -4.75327e-08 129.875 0.223854 130.92 0.671562L 130.6 1.42921C 129.549 0.99299 128.544 0.774874 127.586 0.774874C 126.651 0.774874 125.906 0.990117 125.351 1.42061C 124.797 1.85107 124.52 2.43655 124.52 3.17697C 124.52 3.64188 124.603 4.02363 124.771 4.32206C 124.944 4.62057 125.224 4.89028 125.612 5.1314C 125.998 5.36673 126.663 5.65083 127.603 5.98372C 128.591 6.32242 129.333 6.65244 129.829 6.97387C 130.326 7.28957 130.687 7.65118 130.912 8.05864C 131.143 8.46045 131.258 8.94836 131.258 9.5223ZM 151.119 12.7682L 150.227 12.7682L 142.726 1.59282L 142.657 1.59282C 142.726 2.92446 142.761 3.92893 142.761 4.60617L 142.761 12.7682L 141.912 12.7682L 141.912 0.180808L 142.796 0.180808L 150.288 11.339L 150.339 11.339C 150.288 10.3058 150.262 9.3243 150.262 8.39447L 150.262 0.180808L 151.119 0.180808L 151.119 12.7682ZM 163.318 12.7682L 156.398 12.7682L 156.398 0.180808L 163.318 0.180808L 163.318 0.990117L 157.281 0.990117L 157.281 5.75126L 162.98 5.75126L 162.98 6.5606L 157.281 6.5606L 157.281 11.9588L 163.318 11.9588L 163.318 12.7682ZM 175.622 12.7682L 174.608 12.7682L 170.867 6.89636L 167.056 12.7682L 166.077 12.7682L 170.339 6.20758L 166.467 0.180808L 167.463 0.180808L 170.884 5.57046L 174.358 0.180808L 175.301 0.180808L 171.378 6.19039L 175.622 12.7682ZM 182.399 12.7682L 181.507 12.7682L 181.507 1.00734L 177.394 1.00734L 177.394 0.180808L 186.514 0.180808L 186.514 1.00734L 182.399 1.00734L 182.399 12.7682Z"/>
</defs>
</svg>
