<svg id="svg2" xmlns:rdf="http://www.w3.org/1999/02/22-rdf-syntax-ns#" xmlns="http://www.w3.org/2000/svg" viewBox="0 0 31.000064 141.50022" height="39.935mm" width="8.7489mm" version="1.1" xmlns:cc="http://creativecommons.org/ns#" xmlns:dc="http://purl.org/dc/elements/1.1/">
 <path id="path4143" style="color-rendering:auto;color:#000000;isolation:auto;mix-blend-mode:normal;shape-rendering:auto;solid-color:#000000;image-rendering:auto" d="m6.1523 63.699c-3.4492-2.738-5.6684-7.069-5.6684-11.96v-36.242c0-8.3167 6.4147-15.012 14.383-15.012h1.2633c7.9681 0 14.383 6.6954 14.383 15.012v36.242c0 4.6353-1.9927 8.7671-5.1364 11.517-6.1833 4.9601-13.716 4.8747-19.224 0.443z" fill="#f00"/>
 <path id="path4139" stroke-linejoin="round" style="color-rendering:auto;color:#000000;isolation:auto;mix-blend-mode:normal;shape-rendering:auto;solid-color:#000000;image-rendering:auto" d="m6.1523 63.699c-3.4492-2.738-5.6684-7.069-5.6684-11.96v-36.242c0-8.3167 6.4147-15.012 14.383-15.012h1.2633c7.9681 0 14.383 6.6954 14.383 15.012v36.242c0 4.6353-1.9927 8.7671-5.1364 11.517-6.1833 4.9601-13.716 4.8747-19.224 0.443z" stroke="#000" stroke-width="0.971" fill="none"/>
 <path id="path4150" style="color-rendering:auto;color:#000000;isolation:auto;mix-blend-mode:normal;shape-rendering:auto;solid-color:#000000;image-rendering:auto" fill="#f00" d="m15.406 21.517c-3.0897 0.04713-6.161 1.2657-8.4922 3.6445-4.6624 4.758-4.6228 12.385 0.08789 17.094 0.02937 0.01865 0.05852 0.03608 0.08789 0.05469-0.04227 0.07526-0.0875 0.146-0.12891 0.22266-1.7875 32.105-1.6861 64.465 1.2852 97.668h14.939c2.9713-33.203 3.0726-65.562 1.2852-97.668-0.03809-0.15775-0.08484-0.30682-0.12891-0.45898 0.03295-0.03091 0.06464-0.05459 0.09766-0.08594 4.5653-4.85 4.372-12.472-0.43359-17.086-2.403-2.307-5.5099-3.4319-8.5996-3.3848z"/>
 <path id="handlestroke" stroke-linejoin="round" style="color-rendering:auto;color:#000000;isolation:auto;mix-blend-mode:normal;shape-rendering:auto;solid-color:#000000;image-rendering:auto" d="m6.9928 41.293s-0.41302-3.2065-0.75315-5.0039c-0.60109-0.81413-2.5267-2.2099-2.5267-2.2099m3.2978 8.3458 1.0308-10.169c1.6552-3.8826 4.4864-4.9682 7.6761-5.1529 3.1897 0.18473 6.0209 1.2703 7.6761 5.1529l1.0308 10.169m-17.464 0.107c-1.7875 32.105-1.6858 64.465 1.2855 97.668h14.94c2.9713-33.203 3.0729-65.562 1.2855-97.668-2.611-3.4644-4.882-7.2928-8.7555-7.3176-3.8735 0.0248-6.1444 3.8533-8.7555 7.3176zm17.48-1.24s0.41302-3.2065 0.75315-5.0039c0.60113-0.81391 2.5267-2.2103 2.5267-2.2103m-20.72 8.176c-4.7107-4.709-4.7501-12.334-0.0877-17.092 4.6623-4.758 12.287-4.874 17.093-0.26 4.8056 4.6135 4.9989 12.236 0.43358 17.086" stroke="#000" stroke-width="0.971" fill="none"/>
</svg>
